# xmcd
#
# Track frame offsets:
#      150
#      14700
#      27407
#      42917
#      54737
#      68530
#      79242
#      94515
#      108332
#      121780
#      137005
#
# Disc length: 1992
# Revision: 1
# Processed by: cddbd v1.4b41PL1 Copyright (c) Steve Scherf et al.
# Submitted via: PowerPlay 1.50
#
DISCID=8c07c60b
DTITLE=Michael Bohe - Rivers and Rainbows
DYEAR=1900
DGENRE=
TTITLE0=Love On Earth
TTITLE1=She's Mine
TTITLE2=Rivers and Rainbows
TTITLE3=Addicted
TTITLE4=Mama's Dancing
TTITLE5=Big River
TTITLE6=Wonderful Tonight
TTITLE7=Hardwood Floors In Heaven
TTITLE8=Heartbeat Waltz
TTITLE9=Miracle Of Love
TTITLE10=Six Days On The Road
EXTD=
EXTT0=
EXTT1=
EXTT2=
EXTT3=
EXTT4=
EXTT5=
EXTT6=
EXTT7=
EXTT8=
EXTT9=
EXTT10=
PLAYORDER=
